Patient4_TMGait_0pt3_01_right_02_EMG.mot
version=1
nRows=20
nColumns=33
inDegrees=no
endheader
time	1LAddLong	2LGlutMax	3LGlutMed	4LIliopsoas	5LSemiMemb	6LBicFemLong	7LRecFem	8LVastMed	9LVastLat	10LGasMed	11LTibAnt	12lTibPost	13LPeroneusLong	14LSol	15LExtDigLong	16LFlexDigLong	17RAddLong	18RGlutMax	19RGlutMed	20RIliopsoas	21RSemiMemb	22RBicFemLong	23RRecFem	24RVastMed	25RVastLat	26RGasMed	27RTibAnt	28RTibPost	29RPeroneusLong	30RSol	31RExtDigLong	32RFlexDigLong
4.078	0.010986	-0.099335	0.062561	-0.015259	0.013123	-0.19486	0.031586	-0.021973	0.011749	0.033112	0.079193	0.004578	0.32013	-0.011139	-0.20126	-0.003967	-0.024261	0.040436	0.08667	0.012207	0.031586	0.013733	-0.001373	-0.004425	0.005493	-0.005951	0.10895	-0.001221	0.030823	-0.011139	-0.001221	-0.007629
4.079	-0.014801	-0.029144	-0.001068	0.002899	0.010223	-0.43839	0.12161	0.002289	0.005341	-0.014801	-0.019836	0.005188	0.36499	-0.027313	-0.032806	-0.002441	-0.021362	0.024414	0.16525	-0.03067	-0.014954	0.040588	0.004425	0.032043	-0.011292	0.001831	0.2179	0	-0.36911	-0.05127	-0.004578	-0.006866
4.08	0.003052	-0.007782	-0.018921	0.005646	0.014038	-0.18509	-0.006104	-0.001984	-0.030365	-0.052948	-0.18799	0.005035	0.17609	-0.10468	0.13092	-0.009766	-0.010071	-0.006104	0.048981	-0.007019	0.006256	0.002289	0.030518	-0.013275	-0.01358	-0.002747	0.50323	0.006409	-0.32745	-0.065613	-0.002594	-0.011444
4.081	0.009613	-0.015717	0.036469	-0.002136	0.001221	-0.049896	-0.11734	-0.005646	0.057983	-0.063477	-0.013275	0	-0.10483	-0.11581	0.048981	-0.00885	0.00412	0.030518	0.025177	0.005493	0.017853	-0.009766	0.027466	-0.020447	-0.009003	-0.001373	0.74112	0.001526	-0.10193	-0.058594	-0.002136	-0.014801
4.082	0.003204	-0.002441	0.18829	-0.01297	0.003204	0.036621	-0.058289	-0.008698	0.11566	-0.024109	-0.005035	-0.00061	0.87051	0.011597	0.010376	0.002289	-0.002289	0.041199	0.010071	-0.017548	0.015411	-0.030823	0.017395	-0.027771	-0.014038	0.001678	0.62286	0.000763	-0.052948	-0.00946	-0.002136	-0.012207
4.083	0.005035	0.054474	0.15778	0.010834	0.00412	0.066681	-0.000305	-0.009155	0.10513	0.17731	-0.067291	0.002289	0.7962	0.031128	0.081482	-0.004425	0.008545	0.097198	0.073395	0.002136	-0.016479	-0.037231	0.011292	-0.063019	-0.019073	0	0.51041	-0.00061	-0.17395	0.0354	-0.003967	0.002136
4.084	-0.004425	-0.004425	0.093689	0.04364	0.005341	0.15869	-0.019989	-0.010834	0.071564	-0.004883	-0.00824	-0.013275	-0.81024	0.04776	0.18845	0.011902	0.01709	0.050659	0.13412	0.002136	-0.015564	-0.061646	0.036774	-0.058289	-0.016785	0.007782	-0.047607	-0.001373	-0.1442	0.085297	-0.007324	-0.006256
4.085	-0.001068	-0.081024	0.0354	0.036316	0.005188	0.50537	0.058289	0.008698	0.02533	-0.17502	0.00824	0.001984	-0.63934	-0.021362	0.043793	0.005188	0.004272	0.034943	0.014496	0.039673	-0.02121	-0.050354	0.024261	-0.076294	0.00473	0.001221	-0.42465	-0.001373	0.046692	0.0737	-0.00061	-0.006866
4.086	0	-0.04303	-0.000458	0.021362	-0.000153	0.40039	0.054474	0.014954	0.00061	-0.078735	0.039368	-0.001068	-0.64819	-0.16403	-0.11398	0.005188	-0.009155	0.038147	-0.023956	0.1059	-0.008545	-0.043793	0.019073	-0.009613	-0.014648	-0.001221	-0.5455	0.002747	0.070801	0.022278	-0.002747	-0.009766
4.087	0.004425	-0.057373	-0.062866	0.014954	0.000153	0.18204	0.079041	0.001984	-0.011444	0.10422	-0.018158	0.014648	-0.28229	-0.18921	-0.16174	0.00473	-0.000153	0.000153	-0.15289	0.082397	-0.008545	-0.00946	-0.020294	-0.057068	0.001373	-0.00061	-0.41016	-0.001526	0.1059	-0.099792	0.005646	-0.007935
4.088	0.006714	-0.06424	0.034485	0.014191	0.003357	-0.086823	0.030518	0.002899	-0.009155	0.26703	-0.077515	0.020294	-0.055847	0.029907	0.10437	-0.012512	0.018005	-0.014954	-0.19608	0.036926	0.003662	-0.018768	-0.002289	-0.008698	0.005646	-0.00061	-0.47867	-0.001373	-0.13458	-0.076294	-0.003357	-0.005493
4.089	0.008392	-0.096283	-0.014496	0.016022	0.023499	-0.46265	-0.023193	-0.00351	0.013123	0.28717	-0.033569	0.018616	0.14923	0.071106	0.073853	-0.013733	0.032806	0.00824	0.0914	0.017242	-0.009613	-0.017242	-0.026093	-0.036774	0.006256	0.000305	-0.39948	-0.001373	-0.019226	-0.018921	0	-0.007629
4.09	0.014038	-0.089264	0.024872	0.014191	0.036469	-0.65033	-0.13534	0.004425	0.1236	0.13626	-0.075531	0.004883	0.22125	0.005646	0.057068	-0.008392	0.027771	0.019379	-0.002441	0.04425	-0.013428	-0.010529	-0.072784	-0.068665	0.004425	-0.002747	0.11032	-0.002136	-0.12833	0.018005	-0.00061	0
4.091	0.011292	-0.081787	0.036469	0.016632	0.029449	-0.215	-0.17288	0.009613	0.11124	0.043182	-0.017395	-0.001221	0.63522	0.17731	0.058746	0.002441	-0.003204	0.00885	-0.13977	0.036469	0.004272	0.010071	-0.056458	-0.078888	0.012665	-0.009003	0.57663	-0.002899	-0.47363	0.020905	0.003967	-0.007477
4.092	0.007019	-0.072174	0.001678	0.006104	0.020142	-0.22659	-0.061493	0.009613	0.15045	0.023651	0.12817	-0.007477	0.28992	0.054626	-0.003815	0.010681	-0.02121	0.021667	-0.10178	0.034943	-0.002289	0.011292	-0.071259	0.015717	0.022278	0.001984	1.0335	-0.001221	-0.40848	-0.067139	0.000153	-0.000458
4.093	0.006104	-0.021057	0.023956	0.017548	0.010681	-0.24628	-0.037384	0.016022	0.11993	-0.03006	0.066986	-0.009003	-0.18433	-0.02533	-0.05127	-0.003052	-0.028534	0.036926	0.085144	0.047302	0.009918	0.018463	-0.04837	0.042725	0.012665	0.005493	0.61966	0.000153	-0.39612	-0.12222	0.001984	0.001984
4.094	-0.003967	-0.020752	0.055542	-0.001221	0.011444	-0.086823	0.020294	0.011902	0.089264	-0.15106	0.053558	-0.007629	-0.036316	-0.13962	-0.059509	-0.018616	-0.025787	-0.016174	0.29037	0.023346	0.017395	0.059509	-0.059967	0.005188	0.015411	0.005493	-0.36026	0.003052	-0.26962	-0.11032	-0.000916	-0.007629
4.095	-0.002136	0.009613	0.047455	-0.002441	0.019379	-0.23789	0.010223	0.00824	0.071106	-0.004578	0.072784	-0.04425	-0.48584	-0.07309	0.025177	-0.013428	-0.002747	-0.021057	0.31845	0.006561	0.024719	0.065613	-0.034943	-0.002289	0.038147	0.001984	-0.71228	-0.001068	0.20981	-0.1326	-0.002747	-0.008545
4.096	-0.001984	0.010681	0.025177	0.00885	0.013275	-0.063629	-0.00412	0.016174	-0.054169	0.091553	0.023346	-0.016937	-0.13641	0.17487	0.048828	0.008698	0.00473	0.029755	0.23758	-0.021057	0.031891	0.11093	-0.062408	-0.006714	0.034943	-0.004578	-0.35416	-0.000458	-0.037842	-0.068207	-0.005951	-0.010834
4.097	0.005646	0.0177	0.14694	0.013123	0.004425	-0.032806	-0.03006	0.010681	-0.10971	-0.023041	-0.008698	0.054626	0.13443	0.00885	-0.061951	0.003815	0.024109	0.009308	0.11124	0.019684	0.033417	0.15335	-0.0737	-0.008392	0.029449	-0.007629	-0.096893	-0.004272	-0.24826	-0.063019	-0.003967	-0.004578
